<svg xmlns="http://www.w3.org/2000/svg" xmlns:xlink="http://www.w3.org/1999/xlink" width="414" height="113" viewBox="0 0 414 113">
  <defs>
    <clipPath id="clip-DemoTest_Logo">
      <rect width="414" height="113"/>
    </clipPath>
  </defs>
  <g id="DemoTest_Logo" data-name="DemoTest Logo" clip-path="url(#clip-DemoTest_Logo)">
    <g id="Group_4910" data-name="Group 4910" transform="translate(-60 -35)">
      <path id="Path_24185" data-name="Path 24185" d="M38.849,6.6a13.635,13.635,0,0,1,23.361,0L99.082,67.823A13.635,13.635,0,0,1,87.4,88.493H13.657A13.635,13.635,0,0,1,1.976,67.823Z" transform="matrix(0.866, -0.5, 0.5, 0.866, 27.535, 67.049)" fill="#0ea183"/>
      <g id="Group_4909" data-name="Group 4909" transform="translate(27.535 16.52)">
        <path id="Path_24184" data-name="Path 24184" d="M0,80.908q19.822-5.1,22.169-38.107H37.313q10.165-1.245,11.247-17.09H20.2C1.449,26.766,6.334,43.134,0,80.908ZM25.439.018Q14.366.651,10.56,18.324H55.125C66.049,17.179,67.841,11.784,70.377,0Z" transform="translate(48.537 45) rotate(-11)" fill="#fff" fill-rule="evenodd"/>
        <path id="Path_24184_-_Outline" data-name="Path 24184 - Outline" d="M0,84.115l.347-2.068C2,72.194,2.9,63.627,3.63,56.744,4.7,46.621,5.471,39.307,7.8,34.238c2.52-5.491,6.842-8.119,14.014-8.523l.077,0H51.711l-.1,1.456C50.844,38.428,46.658,44.6,39.17,45.519l-.083.01H25.123c-.876,10.576-3.162,19.1-6.8,25.355C14.455,77.532,8.974,81.808,2.031,83.593ZM21.926,28.44c-12.644.727-13.5,8.891-15.584,28.59-.677,6.412-1.507,14.276-2.95,23.3,11.256-4,17.681-16.187,19.109-36.26l.09-1.267H38.919c5.733-.742,8.963-5.446,9.85-14.362Zm34.961-7.388H10.564l.355-1.65C13.587,7,19.015.48,27.053.021l.077,0L73.757,0,73.4,1.651C72.164,7.4,71.031,12.061,68.7,15.312c-2.42,3.368-6.04,5.136-11.737,5.733ZM13.966,18.325H56.744c4.879-.521,7.793-1.9,9.736-4.6,1.819-2.531,2.856-6.317,3.9-10.992l-43.2.017a11.05,11.05,0,0,0-8.239,4.389C16.832,9.717,15.165,13.476,13.966,18.325Z" transform="translate(46.616 43.983) rotate(-11)" fill="#0ea183"/>
      </g>
      <path id="Path_24186" data-name="Path 24186" d="M6.4-58.056H43.87v9.02H16.728v15.908H42.312v8.692H16.728V0H6.4Zm46.986,0H63.714V-9.184H88.4V0H53.382Zm48.872,32.882L80.442-58.056H93.07l14.6,24.436,14.76-24.436H134.4L112.586-25.174V0H102.254ZM187.78-3.034A45.153,45.153,0,0,1,178.063.287a55.872,55.872,0,0,1-12.177,1.189A35.37,35.37,0,0,1,153.012-.779a29.436,29.436,0,0,1-10-6.314,28.647,28.647,0,0,1-6.519-9.676,32.037,32.037,0,0,1-2.337-12.423,31.516,31.516,0,0,1,2.419-12.587,28.031,28.031,0,0,1,6.642-9.553,29.489,29.489,0,0,1,9.963-6.068,35.524,35.524,0,0,1,12.464-2.132,38.629,38.629,0,0,1,12.751,2.009,26,26,0,0,1,9.307,5.289l-7.134,7.708a17.576,17.576,0,0,0-6.191-4.182,21.537,21.537,0,0,0-8.651-1.722,20.468,20.468,0,0,0-8.323,1.64,18.674,18.674,0,0,0-6.355,4.51,20.393,20.393,0,0,0-4.059,6.724,23.785,23.785,0,0,0-1.435,8.364,24.616,24.616,0,0,0,1.435,8.569,19.956,19.956,0,0,0,4.1,6.765,18.446,18.446,0,0,0,6.478,4.469,22.188,22.188,0,0,0,8.651,1.6,29.922,29.922,0,0,0,11.562-2.05V-24.6H165.558v-8.528H187.78Zm12.546-55.022h10.332V-34.6H237.8V-58.056h10.332V0H237.8V-25.748H210.658V0H200.326Zm72.324,9.02H254.856v-9.02h45.92v9.02H282.982V0H272.65Z" transform="translate(171.465 118.481)" fill="#4d4d4d"/>
    </g>
  </g>
</svg>
